v -2.245590 1.655000 0.260136
v -2.153321 1.340174 0.162402
v -2.089874 0.984858 0.095197
v -2.048512 0.598518 0.051385
v -2.023395 0.189358 0.024781
v -2.009583 -0.235684 0.010150
v -2.003032 -0.670926 0.003212
v -2.000599 -1.111952 0.000634
v -2.000037 -1.555608 0.000040
v -2.000000 -2.000000 0.000000
v -1.647229 1.754380 0.134230
v -1.633228 1.402181 0.131522
v -1.622218 1.020682 0.130373
v -1.609722 0.615423 0.132352
v -1.589087 0.190244 0.140241
v -1.551485 -0.252720 0.158037
v -1.485913 -0.713033 0.190951
v -1.379188 -1.191966 0.245405
v -1.215955 -1.692487 0.329039
v -0.978682 -2.219271 0.450703
v -1.085991 1.901233 0.053999
v -1.158213 1.493821 0.179967
v -1.205946 1.074090 0.267636
v -1.229893 0.643226 0.328474
v -1.226941 0.200951 0.374347
v -1.190156 -0.254476 0.417518
v -1.108786 -0.726261 0.470650
v -0.968259 -1.219075 0.546802
v -0.750184 -1.739051 0.659432
v -0.432351 -2.293789 0.822395
v -0.565751 2.043460 0.008121
v -0.707618 1.582494 0.247589
v -0.803003 1.125524 0.413670
v -0.858212 0.670285 0.525558
v -0.875152 0.213513 0.601796
v -0.851320 -0.249056 0.660284
v -0.779811 -0.722682 0.718274
v -0.649315 -1.213628 0.792369
v -0.444118 -1.729152 0.898529
v -0.144099 -2.277515 1.052065
v -0.086240 2.145770 -0.013299
v -0.265937 1.646049 0.293350
v -0.386815 1.161360 0.506553
v -0.459650 0.687949 0.648730
v -0.490899 0.221365 0.741060
v -0.482703 -0.243548 0.803474
v -0.432882 -0.712646 0.854662
v -0.334939 -1.192486 0.912067
v -0.178062 -1.690328 0.991892
v 0.052884 -2.214132 1.109090
v 0.356955 2.189681 -0.018730
v 0.177189 1.672788 0.295326
v 0.057711 1.173908 0.515754
v -0.014960 0.690558 0.662441
v -0.050352 0.219348 0.754379
v -0.054036 -0.244027 0.809671
v -0.027629 -0.704778 0.845528
v 0.031209 -1.169025 0.878270
v 0.128770 -1.643800 0.923327
v 0.275305 -2.137044 0.995237
v 0.772397 2.173520 -0.015214
v 0.626965 1.661459 0.250699
v 0.534186 1.161413 0.442136
v 0.479315 0.675443 0.570457
v 0.451333 0.203704 0.647765
v 0.442945 -0.255552 0.686903
v 0.450580 -0.705978 0.701461
v 0.474390 -1.153132 0.705767
v 0.518253 -1.604477 0.714895
v 0.589771 -2.069379 0.744661
v 1.172793 2.112423 -0.008365
v 1.083449 1.621266 0.175766
v 1.034739 1.128057 0.317954
v 1.010850 0.642923 0.415870
v 1.000013 0.172080 0.471000
v 0.994504 -0.282167 0.488647
v 0.990640 -0.721425 0.477924
v 0.988787 -1.151210 0.451761
v 0.993352 -1.580950 0.426903
v 1.012788 -2.023983 0.423908
v 1.574994 2.038332 -0.002373
v 1.541546 1.571857 0.105932
v 1.540020 1.083954 0.206854
v 1.551536 0.596312 0.281088
v 1.562558 0.123527 0.317639
v 1.564897 -0.326902 0.313820
v 1.555712 -0.754571 0.275254
v 1.537504 -1.166173 0.215870
v 1.518123 -1.575497 0.157908
v 1.510763 -2.003426 0.131913
v 2.000000 2.000000 0.000000
v 1.991014 1.543337 0.095714
v 2.019197 1.045154 0.203876
v 2.057476 0.541911 0.287842
v 2.086848 0.058497 0.325004
v 2.096382 -0.391772 0.306790
v 2.083218 -0.807147 0.238665
v 2.052566 -1.197452 0.140128
v 2.017709 -1.584081 0.044715
v 2.000000 -2.000000 0.000000

vn 0.010312 -0.009792 0.041277
vn 0.002036 -0.000180 0.033934
vn 0.002910 -0.006341 0.036272
vn -0.002399 -0.000166 0.032061
vn -0.002210 -0.004035 0.033492
vn -0.005946 -0.000026 0.032231
vn -0.005994 -0.002514 0.033008
vn -0.009382 0.000199 0.035291
vn -0.009380 -0.001520 0.035295
vn -0.013859 0.000551 0.042994
vn -0.013509 -0.000869 0.041745
vn -0.021277 0.001178 0.058870
vn -0.020111 -0.000434 0.055298
vn -0.035038 0.002395 0.089736
vn -0.032189 -0.000150 0.081670
vn -0.061404 0.004758 0.148319
vn -0.055248 -0.000016 0.131662
vn -0.111694 0.009178 0.257571
vn 0.005782 -0.000080 0.040298
vn -0.006250 0.012655 0.037346
vn -0.003366 -0.000198 0.033376
vn -0.011717 0.008096 0.032384
vn -0.009937 -0.000159 0.030198
vn -0.016072 0.005184 0.030391
vn -0.015247 -0.000192 0.029556
vn -0.019940 0.003052 0.030706
vn -0.019892 -0.000451 0.030793
vn -0.023926 0.001226 0.033325
vn -0.024439 -0.001049 0.034024
vn -0.028909 -0.000599 0.038950
vn -0.029779 -0.002082 0.040053
vn -0.036192 -0.002733 0.049099
vn -0.037237 -0.003717 0.050435
vn -0.047683 -0.005609 0.066430
vn -0.048722 -0.006286 0.067799
vn -0.066249 -0.009936 0.095384
vn 0.000164 0.013132 0.042567
vn -0.012248 0.027462 0.045606
vn -0.006985 0.008255 0.035719
vn -0.015848 0.017022 0.037734
vn -0.012333 0.005230 0.032186
vn -0.018429 0.010425 0.033324
vn -0.016571 0.003087 0.030828
vn -0.020355 0.005954 0.031153
vn -0.019950 0.001307 0.030784
vn -0.021803 0.002717 0.030371
vn -0.022641 -0.000345 0.031609
vn -0.022952 0.000268 0.030488
vn -0.024916 -0.001985 0.033130
vn -0.024024 -0.001671 0.031240
vn -0.027118 -0.003726 0.035303
vn -0.025254 -0.003366 0.032466
vn -0.029599 -0.005758 0.038128
vn -0.026837 -0.005150 0.034047
vn -0.003441 0.026303 0.048593
vn -0.010901 0.036975 0.053866
vn -0.006702 0.016552 0.041694
vn -0.011977 0.022735 0.044894
vn -0.009255 0.010335 0.037482
vn -0.012631 0.013631 0.038916
vn -0.011142 0.006280 0.035153
vn -0.012801 0.007760 0.034883
vn -0.012350 0.003646 0.033870
vn -0.012400 0.004046 0.031766
vn -0.012817 0.002095 0.032915
vn -0.011342 0.001928 0.028709
vn -0.012503 0.001460 0.031696
vn -0.009613 0.001036 0.025064
vn -0.011415 0.001573 0.029702
vn -0.007303 0.000971 0.020407
vn -0.009607 0.002158 0.026480
vn -0.004624 0.001229 0.014607
vn -0.002719 0.034119 0.054007
vn -0.002489 0.036872 0.059261
vn -0.001544 0.021962 0.049053
vn -0.001778 0.023943 0.053225
vn -0.001345 0.013996 0.045915
vn -0.001576 0.014890 0.048285
vn -0.001405 0.008779 0.043890
vn -0.001290 0.008676 0.043973
vn -0.001254 0.005661 0.042334
vn -0.000569 0.004747 0.039740
vn -0.000583 0.004375 0.040664
vn 0.000736 0.002771 0.035059
vn 0.000773 0.004753 0.038412
vn 0.002575 0.002412 0.029574
vn 0.002837 0.006551 0.035284
vn 0.004710 0.003172 0.023229
vn 0.005534 0.009411 0.031153
vn 0.006842 0.004417 0.016356
vn 0.000828 0.033314 0.055304
vn 0.006708 0.029337 0.060162
vn 0.006084 0.023050 0.055465
vn 0.010070 0.021675 0.061498
vn 0.009090 0.015681 0.056173
vn 0.011770 0.014732 0.060824
vn 0.010799 0.010184 0.056354
vn 0.012632 0.008780 0.058151
vn 0.012037 0.006548 0.055682
vn 0.013414 0.004348 0.053893
vn 0.013482 0.004984 0.054108
vn 0.014611 0.001815 0.048484
vn 0.015597 0.005625 0.051724
vn 0.016420 0.001282 0.042304
vn 0.018668 0.008461 0.048739
vn 0.018850 0.002554 0.035705
vn 0.022925 0.013425 0.045372
vn 0.021919 0.005223 0.028919
vn 0.003054 0.025763 0.051281
vn 0.010813 0.018922 0.055719
vn 0.011276 0.020082 0.057919
vn 0.017503 0.017273 0.065911
vn 0.016796 0.014922 0.063694
vn 0.021460 0.013273 0.070995
vn 0.020012 0.009753 0.066759
vn 0.023261 0.007756 0.070816
vn 0.021933 0.005320 0.067130
vn 0.024141 0.002304 0.066853
vn 0.023687 0.002520 0.065561
vn 0.025175 -0.001709 0.060940
vn 0.026121 0.001997 0.062971
vn 0.026974 -0.003440 0.054601
vn 0.029744 0.004109 0.060266
vn 0.029766 -0.002512 0.048899
vn 0.034853 0.009090 0.058239
vn 0.033573 0.001172 0.044443
vn 0.002328 0.016233 0.044432
vn 0.008485 0.010577 0.048175
vn 0.009958 0.014825 0.054837
vn 0.015164 0.013139 0.063750
vn 0.014977 0.012046 0.063335
vn 0.019043 0.011475 0.072423
vn 0.017499 0.007512 0.067600
vn 0.020541 0.006153 0.073397
vn 0.018723 0.002411 0.067915
vn 0.021104 -0.000475 0.068975
vn 0.020007 -0.001781 0.065731
vn 0.022005 -0.006095 0.062351
vn 0.022268 -0.003914 0.062727
vn 0.023906 -0.009164 0.056190
vn 0.025934 -0.003226 0.060530
vn 0.026948 -0.008695 0.052395
vn 0.031154 0.000956 0.060797
vn 0.031075 -0.003738 0.052732
vn 0.000624 0.009444 0.040869
vn 0.001554 0.009018 0.043173
vn 0.001762 0.010163 0.049158
vn 0.001382 0.012630 0.057813
vn 0.001022 0.008402 0.055031
vn 0.000299 0.010811 0.064656
vn -0.000288 0.004408 0.057101
vn -0.000289 0.004861 0.063458
vn -0.000842 -0.000477 0.055706
vn 0.000474 -0.002297 0.057022
vn 0.000115 -0.004705 0.052147
vn 0.002592 -0.008125 0.049039
vn 0.002635 -0.007062 0.048138
vn 0.005575 -0.011173 0.042523
vn 0.006297 -0.006757 0.045611
vn 0.008794 -0.010569 0.039614
vn 0.010591 -0.003036 0.046973
vn 0.011670 -0.005136 0.043149

f 1//1 2//1 11//1
f 2//2 12//2 11//2
f 2//3 3//3 12//3
f 3//4 13//4 12//4
f 3//5 4//5 13//5
f 4//6 14//6 13//6
f 4//7 5//7 14//7
f 5//8 15//8 14//8
f 5//9 6//9 15//9
f 6//10 16//10 15//10
f 6//11 7//11 16//11
f 7//12 17//12 16//12
f 7//13 8//13 17//13
f 8//14 18//14 17//14
f 8//15 9//15 18//15
f 9//16 19//16 18//16
f 9//17 10//17 19//17
f 10//18 20//18 19//18
f 11//19 12//19 21//19
f 12//20 22//20 21//20
f 12//21 13//21 22//21
f 13//22 23//22 22//22
f 13//23 14//23 23//23
f 14//24 24//24 23//24
f 14//25 15//25 24//25
f 15//26 25//26 24//26
f 15//27 16//27 25//27
f 16//28 26//28 25//28
f 16//29 17//29 26//29
f 17//30 27//30 26//30
f 17//31 18//31 27//31
f 18//32 28//32 27//32
f 18//33 19//33 28//33
f 19//34 29//34 28//34
f 19//35 20//35 29//35
f 20//36 30//36 29//36
f 21//37 22//37 31//37
f 22//38 32//38 31//38
f 22//39 23//39 32//39
f 23//40 33//40 32//40
f 23//41 24//41 33//41
f 24//42 34//42 33//42
f 24//43 25//43 34//43
f 25//44 35//44 34//44
f 25//45 26//45 35//45
f 26//46 36//46 35//46
f 26//47 27//47 36//47
f 27//48 37//48 36//48
f 27//49 28//49 37//49
f 28//50 38//50 37//50
f 28//51 29//51 38//51
f 29//52 39//52 38//52
f 29//53 30//53 39//53
f 30//54 40//54 39//54
f 31//55 32//55 41//55
f 32//56 42//56 41//56
f 32//57 33//57 42//57
f 33//58 43//58 42//58
f 33//59 34//59 43//59
f 34//60 44//60 43//60
f 34//61 35//61 44//61
f 35//62 45//62 44//62
f 35//63 36//63 45//63
f 36//64 46//64 45//64
f 36//65 37//65 46//65
f 37//66 47//66 46//66
f 37//67 38//67 47//67
f 38//68 48//68 47//68
f 38//69 39//69 48//69
f 39//70 49//70 48//70
f 39//71 40//71 49//71
f 40//72 50//72 49//72
f 41//73 42//73 51//73
f 42//74 52//74 51//74
f 42//75 43//75 52//75
f 43//76 53//76 52//76
f 43//77 44//77 53//77
f 44//78 54//78 53//78
f 44//79 45//79 54//79
f 45//80 55//80 54//80
f 45//81 46//81 55//81
f 46//82 56//82 55//82
f 46//83 47//83 56//83
f 47//84 57//84 56//84
f 47//85 48//85 57//85
f 48//86 58//86 57//86
f 48//87 49//87 58//87
f 49//88 59//88 58//88
f 49//89 50//89 59//89
f 50//90 60//90 59//90
f 51//91 52//91 61//91
f 52//92 62//92 61//92
f 52//93 53//93 62//93
f 53//94 63//94 62//94
f 53//95 54//95 63//95
f 54//96 64//96 63//96
f 54//97 55//97 64//97
f 55//98 65//98 64//98
f 55//99 56//99 65//99
f 56//100 66//100 65//100
f 56//101 57//101 66//101
f 57//102 67//102 66//102
f 57//103 58//103 67//103
f 58//104 68//104 67//104
f 58//105 59//105 68//105
f 59//106 69//106 68//106
f 59//107 60//107 69//107
f 60//108 70//108 69//108
f 61//109 62//109 71//109
f 62//110 72//110 71//110
f 62//111 63//111 72//111
f 63//112 73//112 72//112
f 63//113 64//113 73//113
f 64//114 74//114 73//114
f 64//115 65//115 74//115
f 65//116 75//116 74//116
f 65//117 66//117 75//117
f 66//118 76//118 75//118
f 66//119 67//119 76//119
f 67//120 77//120 76//120
f 67//121 68//121 77//121
f 68//122 78//122 77//122
f 68//123 69//123 78//123
f 69//124 79//124 78//124
f 69//125 70//125 79//125
f 70//126 80//126 79//126
f 71//127 72//127 81//127
f 72//128 82//128 81//128
f 72//129 73//129 82//129
f 73//130 83//130 82//130
f 73//131 74//131 83//131
f 74//132 84//132 83//132
f 74//133 75//133 84//133
f 75//134 85//134 84//134
f 75//135 76//135 85//135
f 76//136 86//136 85//136
f 76//137 77//137 86//137
f 77//138 87//138 86//138
f 77//139 78//139 87//139
f 78//140 88//140 87//140
f 78//141 79//141 88//141
f 79//142 89//142 88//142
f 79//143 80//143 89//143
f 80//144 90//144 89//144
f 81//145 82//145 91//145
f 82//146 92//146 91//146
f 82//147 83//147 92//147
f 83//148 93//148 92//148
f 83//149 84//149 93//149
f 84//150 94//150 93//150
f 84//151 85//151 94//151
f 85//152 95//152 94//152
f 85//153 86//153 95//153
f 86//154 96//154 95//154
f 86//155 87//155 96//155
f 87//156 97//156 96//156
f 87//157 88//157 97//157
f 88//158 98//158 97//158
f 88//159 89//159 98//159
f 89//160 99//160 98//160
f 89//161 90//161 99//161
f 90//162 100//162 99//162
